<svg version="1.2" xmlns="http://www.w3.org/2000/svg" viewBox="0 0 512 512" width="512" height="512">
	<defs>
		<linearGradient id="g1" x1="289.3" y1="336" x2="170.2" y2="55.2" gradientUnits="userSpaceOnUse">
			<stop offset="0" stop-color="#580751"/>
			<stop offset="1" stop-color="#da1c5c"/>
		</linearGradient>
		<linearGradient id="g2" x1="319.9" y1="466.5" x2="192.8" y2="167.1" gradientUnits="userSpaceOnUse">
			<stop offset="0" stop-color="#581678"/>
			<stop offset="1" stop-color="#da1c5c"/>
		</linearGradient>
	</defs>
	<path fill="url(#g1)" d="m367.6 178.6c0 0-82.8-105.5-188.9-46.6-106.1 58.9-70 176.4-70 176.4l-52.4 27.6c0 0-76.4-172.6 96.3-256.1 172.8-83.4 267.4 71.1 267.4 71.1"/>
	<path fill="url(#g2)" d="m3.3 368.8l506-201.7-58.3 96c0 0 0.8 157-160.9 196.6-161.6 39.5-223.8-104.9-223.8-104.9zm269.3 33.8c99.3-14.5 118.9-120.9 118.9-120.9l-264.6 60.3c0 0 46.4 75.1 145.7 60.6z"/>
</svg>